<!-- <svg width="334" height="375" viewBox="0 0 334 375" fill="none" xmlns="http://www.w3.org/2000/svg">
<g filter="url(#filter0_b_865_14101)">
<path d="M154.451 11.3806C162.362 6.81349 172.108 6.81348 180.019 11.3806L313.135 88.2354C321.046 92.8026 325.919 101.243 325.919 110.377V264.087C325.919 273.221 321.046 281.662 313.135 286.229L180.019 363.084C172.108 367.651 162.362 367.651 154.451 363.084L21.335 286.229C13.4245 281.662 8.55138 273.221 8.55138 264.087V110.377C8.55138 101.243 13.4245 92.8026 21.335 88.2354L154.451 11.3806Z" fill="#070F23"/>
<path d="M154.451 11.3806C162.362 6.81349 172.108 6.81348 180.019 11.3806L313.135 88.2354C321.046 92.8026 325.919 101.243 325.919 110.377V264.087C325.919 273.221 321.046 281.662 313.135 286.229L180.019 363.084C172.108 367.651 162.362 367.651 154.451 363.084L21.335 286.229C13.4245 281.662 8.55138 273.221 8.55138 264.087V110.377C8.55138 101.243 13.4245 92.8026 21.335 88.2354L154.451 11.3806Z" stroke="url(#paint0_angular_865_14101)" stroke-width="15.6244"/>
</g>
<defs>
<filter id="filter0_b_865_14101" x="-2.10155" y="-2.69823" width="338.673" height="379.859" filterUnits="userSpaceOnUse" color-interpolation-filters="sRGB">
<feFlood flood-opacity="0" result="BackgroundImageFix"/>
<feGaussianBlur in="BackgroundImageFix" stdDeviation="1.4204"/>
<feComposite in2="SourceAlpha" operator="in" result="effect1_backgroundBlur_865_14101"/>
<feBlend mode="normal" in="SourceGraphic" in2="effect1_backgroundBlur_865_14101" result="shape"/>
</filter>
<radialGradient id="paint0_angular_865_14101" cx="0" cy="0" r="1" gradientUnits="userSpaceOnUse" gradientTransform="translate(167.235 282.513) rotate(90) scale(87.9514)">
<stop stop-color="#331F53"/>
<stop offset="0.165843" stop-color="#9001E0"/>
<stop offset="0.330101" stop-color="#FF00A6"/>
<stop offset="0.505208" stop-color="#FDBC51"/>
<stop offset="0.686805" stop-color="#CDD2E5"/>
<stop offset="0.835201" stop-color="#2290EC"/>
<stop offset="1" stop-color="#25164B"/>
</radialGradient>
</defs>
</svg> -->


<svg width="334" height="375" viewBox="0 0 334 375" fill="none" xmlns="http://www.w3.org/2000/svg">
<g filter="url(#filter0_b_865_14101)">
<path d="M154.451 11.3806C162.362 6.81349 172.108 6.81348 180.019 11.3806L313.135 88.2354C321.046 92.8026 325.919 101.243 325.919 110.377V264.087C325.919 273.221 321.046 281.662 313.135 286.229L180.019 363.084C172.108 367.651 162.362 367.651 154.451 363.084L21.335 286.229C13.4245 281.662 8.55138 273.221 8.55138 264.087V110.377C8.55138 101.243 13.4245 92.8026 21.335 88.2354L154.451 11.3806Z" fill="#070F23"/>
<path d="M154.451 11.3806C162.362 6.81349 172.108 6.81348 180.019 11.3806L313.135 88.2354C321.046 92.8026 325.919 101.243 325.919 110.377V264.087C325.919 273.221 321.046 281.662 313.135 286.229L180.019 363.084C172.108 367.651 162.362 367.651 154.451 363.084L21.335 286.229C13.4245 281.662 8.55138 273.221 8.55138 264.087V110.377C8.55138 101.243 13.4245 92.8026 21.335 88.2354L154.451 11.3806Z" stroke="url(#paint0_angular_865_14101)" stroke-width="15.6244"/>
</g>
<defs>
<filter id="filter0_b_865_14101" x="-2.10155" y="-2.69823" width="338.673" height="379.859" filterUnits="userSpaceOnUse" color-interpolation-filters="sRGB">
<feFlood flood-opacity="0" result="BackgroundImageFix"/>
<feGaussianBlur in="BackgroundImageFix" stdDeviation="1.4204"/>
<feComposite in2="SourceAlpha" operator="in" result="effect1_backgroundBlur_865_14101"/>
<feBlend mode="normal" in="SourceGraphic" in2="effect1_backgroundBlur_865_14101" result="shape"/>
</filter>
<radialGradient id="paint0_angular_865_14101" cx="0" cy="0" r="1" gradientUnits="userSpaceOnUse" gradientTransform="translate(167.235 282.513) rotate(90) scale(87.9514)">
<stop stop-color="#331F53"/>
<stop offset="0.165843" stop-color="#9001E0"/>
<stop offset="0.330101" stop-color="#FF00A6"/>
<stop offset="0.505208" stop-color="#FDBC51"/>
<stop offset="0.686805" stop-color="#CDD2E5"/>
<stop offset="0.835201" stop-color="#2290EC"/>
<stop offset="1" stop-color="#25164B"/>
</radialGradient>
</defs>
</svg>
