<svg width="56" height="60" viewBox="0 0 56 60" fill="none" xmlns="http://www.w3.org/2000/svg">
<g clip-path="url(#clip0_866_17854)">
<path d="M51.1709 47.8413C50.7584 50.9073 48.6951 53.5602 45.8066 54.7393C44.3916 55.3281 42.8591 55.5055 41.3261 55.3281C39.8526 55.1516 38.3786 54.6798 36.8461 53.7964C34.7236 52.6161 32.6013 50.7895 30.1255 48.0775C34.0165 43.3025 36.3739 38.94 37.2586 35.0499C37.6713 33.2222 37.7301 31.5714 37.5535 30.0385C37.318 28.5649 36.7873 27.2085 35.9616 26.0297C34.1341 23.3772 31.069 21.8442 27.6498 21.8442C24.2305 21.8442 21.1652 23.4362 19.3377 26.0297C18.512 27.2087 17.9822 28.5649 17.746 30.0385C17.5104 31.5714 17.5692 33.281 18.041 35.0501C18.925 38.9398 21.3418 43.3615 25.174 48.1357C22.757 50.8483 20.5757 52.6756 18.4533 53.8548C16.9207 54.7393 15.4468 55.211 13.9732 55.3871C12.4541 55.5568 10.9166 55.3547 9.49295 54.7982C6.60422 53.6192 4.54139 50.9654 4.12843 47.9001C3.95188 46.4268 4.06966 44.9532 4.65916 43.3025C4.83571 42.7126 5.13089 42.1241 5.42521 41.4162C5.83816 40.4734 6.30989 39.4705 6.78098 38.4681L6.8404 38.3509C10.9075 29.5668 15.2702 20.6064 19.8095 11.8821L19.9862 11.5277C20.458 10.6443 20.9291 9.70149 21.4012 8.81681C21.8725 7.87335 22.403 6.98888 23.0513 6.22197C24.2893 4.80699 25.94 4.04072 27.7675 4.04072C29.595 4.04072 31.2456 4.80699 32.4836 6.22218C33.1321 6.98888 33.6626 7.87335 34.1343 8.81702C34.606 9.70149 35.0771 10.6443 35.5488 11.5277L35.7263 11.8821C40.2061 20.6652 44.5688 29.6255 48.6363 38.4097V38.4681C49.1081 39.4115 49.5204 40.4734 49.9921 41.4162C50.2871 42.1241 50.5816 42.7124 50.7581 43.3025C51.2299 44.835 51.4066 46.3094 51.1711 47.8413H51.1709ZM27.6498 45.0704C24.4667 41.0623 22.403 37.2891 21.6957 34.1067C21.4014 32.7505 21.3418 31.5714 21.5192 30.5102C21.6368 29.5668 21.9909 28.7411 22.4618 28.0331C23.582 26.4429 25.4683 25.439 27.6498 25.439C29.831 25.439 31.7763 26.3831 32.8373 28.0331C33.3086 28.7411 33.6626 29.5668 33.7803 30.5102C33.9571 31.5714 33.8981 32.8092 33.6036 34.1067C32.8963 37.2307 30.8328 41.0035 27.6498 45.0704ZM54.2364 42.0053C53.9418 41.2978 53.6469 40.5318 53.3523 39.8833C52.8806 38.8227 52.4089 37.8198 51.9961 36.8763L51.9372 36.818C47.8701 27.9748 43.5074 19.0145 38.9091 10.1732L38.7325 9.81841C38.2608 8.93415 37.7891 7.99069 37.318 7.04766C36.7281 5.986 36.1383 4.86705 35.1955 3.80518C33.3084 1.44717 30.5973 0.150391 27.7083 0.150391C24.7608 0.150391 22.1083 1.44717 20.1626 3.68783C19.2787 4.74864 18.6302 5.86865 18.0407 6.93053C17.569 7.87335 17.0973 8.81681 16.6258 9.70149L16.449 10.0542C11.9102 18.8967 7.48869 27.8577 3.42095 36.7002L3.36217 36.818C2.94921 37.7608 2.47748 38.7626 2.00575 39.8245C1.69039 40.5232 1.39565 41.2309 1.12193 41.947C0.355232 44.1276 0.119687 46.1912 0.414225 48.3131C1.06315 52.7346 4.01066 56.449 8.07819 58.0991C9.61051 58.748 11.2023 59.0425 12.8532 59.0425C13.3247 59.0425 13.9142 58.9835 14.386 58.9241C16.331 58.6879 18.3353 58.0407 20.2803 56.9201C22.6978 55.5643 24.997 53.6192 27.5906 50.7895C30.1841 53.6192 32.5423 55.5645 34.9004 56.9201C36.8461 58.0407 38.8501 58.6879 40.7954 58.9241C41.2671 58.9835 41.8566 59.0425 42.3281 59.0425C43.9789 59.0425 45.6292 58.748 47.1031 58.0991C51.2297 56.449 54.1182 52.6758 54.7667 48.3131C55.2384 46.2494 55.0022 44.1872 54.2362 42.0051L54.2364 42.0053Z" fill="#F60066"/>
</g>
<defs>
<clipPath id="clip0_866_17854">
<rect width="54.7182" height="58.993" fill="white" transform="translate(0.290527 0.150391)"/>
</clipPath>
</defs>
</svg>
