<svg width="56" height="65" viewBox="0 0 56 65" fill="none" xmlns="http://www.w3.org/2000/svg">
<g clip-path="url(#clip0_866_17848)">
<path d="M17.3274 0.662196C17.0141 0.664213 16.7063 0.744209 16.4318 0.894962C15.5302 1.39469 15.1995 2.55297 15.6991 3.45389L17.7345 7.12941C12.8304 10.1635 9.58089 15.3463 9.58089 21.2617V22.3607C8.63892 21.2771 7.25451 20.5929 5.70765 20.5929C2.87342 20.5929 0.572266 22.894 0.572266 25.728V41.5469C0.572266 44.3807 2.87364 46.6821 5.70765 46.6821C7.25451 46.6821 8.63892 45.9977 9.58067 44.914V47.1299C9.58067 50.1174 12.0252 52.5618 15.0127 52.5618H16.3909V59.5988C16.3909 62.433 18.6923 64.7342 21.5263 64.7342C24.3604 64.7342 26.6615 62.4328 26.6615 59.5988V52.5618H29.046V59.5988C29.046 62.433 31.3474 64.7342 34.1814 64.7342C37.0154 64.7342 39.3166 62.4328 39.3166 59.5988V52.5618H40.695C43.6823 52.5618 46.1269 50.1174 46.1269 47.1299V44.914C47.0686 45.9977 48.4532 46.6821 50.0001 46.6821C52.8341 46.6821 55.1353 44.3807 55.1353 41.5469V25.728C55.1353 22.894 52.8341 20.5929 50.0001 20.5929C48.4532 20.5929 47.0686 21.2771 46.1269 22.3607V21.4476V21.3953C46.1273 21.3397 46.1269 21.2952 46.1269 21.2617C46.1269 15.3474 42.8698 10.1697 37.9674 7.1354L40.0087 3.45389C40.508 2.55297 40.1775 1.39469 39.276 0.894962C39.0014 0.744209 38.6936 0.664213 38.3804 0.662196C37.7146 0.655783 37.0612 1.00675 36.717 1.62767L34.5826 5.48359C32.4956 4.71348 30.2248 4.29134 27.854 4.29134C25.4853 4.29134 23.2102 4.70899 21.1249 5.47761L18.9907 1.62767C18.6464 1.00675 17.9932 0.656211 17.3274 0.662196Z" fill="white"/>
<path d="M5.7087 21.9307C3.59393 21.9307 1.91113 23.6135 1.91113 25.7282V41.5471C1.91113 43.6619 3.59393 45.3447 5.7087 45.3447C7.82347 45.3447 9.50649 43.6619 9.50649 41.5471V25.7282C9.50649 23.6135 7.82347 21.9307 5.7087 21.9307ZM50.0014 21.9307C47.8864 21.9307 46.2036 23.6135 46.2036 25.7282V41.5471C46.2036 43.6619 47.8864 45.3447 50.0014 45.3447C52.1161 45.3447 53.7989 43.6619 53.7989 41.5471V25.7282C53.7989 23.6135 52.1161 21.9307 50.0014 21.9307Z" fill="#A4C639"/>
<path d="M21.5273 39.9824C19.4125 39.9824 17.7295 41.6652 17.7295 43.7802V59.5989C17.7295 61.7137 19.4125 63.3965 21.5273 63.3965C23.642 63.3965 25.3248 61.7137 25.3248 59.5989V43.7802C25.3248 41.6652 23.642 39.9824 21.5273 39.9824ZM34.1823 39.9824C32.0674 39.9824 30.3846 41.6652 30.3846 43.7802V59.5989C30.3846 61.7137 32.0674 63.3965 34.1823 63.3965C36.2971 63.3965 37.9799 61.7137 37.9799 59.5989V43.7802C37.9799 41.6652 36.2971 39.9824 34.1823 39.9824Z" fill="#A4C639"/>
<path d="M17.3379 2.00007C17.2481 2.00116 17.16 2.02514 17.082 2.06975C16.8112 2.2198 16.7223 2.53101 16.8726 2.80247L19.548 7.6354C14.4011 10.3136 10.9243 15.403 10.9175 21.2442H44.7883C44.7812 15.403 41.3047 10.3134 36.1577 7.6354L38.833 2.80268C38.9834 2.53123 38.8943 2.2198 38.6235 2.06975C38.5455 2.02511 38.4575 2.00113 38.3676 2.00007C38.1753 1.99794 37.9934 2.09412 37.8908 2.27922L35.1805 7.16432C32.9636 6.1811 30.4769 5.629 27.8528 5.629C25.2286 5.629 22.7422 6.18088 20.525 7.16432L17.8148 2.27922C17.7685 2.19347 17.6996 2.12208 17.6156 2.07285C17.5315 2.02361 17.4355 1.99844 17.3381 2.00007H17.3379ZM10.9175 22.5818V47.1302C10.9163 47.6681 11.0214 48.201 11.2268 48.6983C11.4321 49.1955 11.7337 49.6473 12.1141 50.0277C12.4945 50.4081 12.9463 50.7096 13.4436 50.915C13.9408 51.1203 14.4738 51.2254 15.0117 51.2242H40.694C41.232 51.2254 41.7649 51.1203 42.2622 50.9149C42.7595 50.7096 43.2113 50.4081 43.5917 50.0277C43.9721 49.6472 44.2737 49.1954 44.479 48.6981C44.6843 48.2009 44.7894 47.6679 44.7883 47.1299V22.582H10.9175V22.5818Z" fill="#A4C639"/>
<path d="M20.0353 12.2178C19.2622 12.2178 18.6221 12.8577 18.6221 13.6308C18.6221 14.4042 19.2622 15.0441 20.0353 15.0441C20.8087 15.0441 21.4486 14.4042 21.4486 13.6308C21.4486 12.8577 20.8087 12.2178 20.0353 12.2178ZM35.6681 12.2178C34.8947 12.2178 34.2548 12.8577 34.2548 13.6308C34.2548 14.4042 34.8947 15.0441 35.6681 15.0441C36.4412 15.0441 37.0813 14.4042 37.0813 13.6308C37.0813 12.8577 36.4412 12.2178 35.6681 12.2178Z" fill="white"/>
</g>
<defs>
<clipPath id="clip0_866_17848">
<rect width="54.7182" height="64.3366" fill="white" transform="translate(0.572266 0.478516)"/>
</clipPath>
</defs>
</svg>
