<svg width="55" height="56" viewBox="0 0 55 56" fill="none" xmlns="http://www.w3.org/2000/svg">
<g clip-path="url(#clip0_866_17835)">
<path d="M12.119 0.288086H42.8706C49.489 0.288086 54.8539 5.65303 54.8539 12.2714V43.023C54.8539 49.6413 49.489 55.0063 42.8706 55.0063H12.119C5.50069 55.0063 0.135742 49.6413 0.135742 43.023V12.2714C0.135742 5.65303 5.50069 0.288086 12.119 0.288086Z" fill="url(#paint0_linear_866_17835)"/>
<path d="M17.6695 40.0029L17.6747 40.0046L15.8038 43.245C15.1209 44.4278 13.6084 44.8331 12.4256 44.1502C11.2429 43.4673 10.8374 41.9548 11.5203 40.772L12.8986 38.3849L13.0309 38.1557C13.2671 37.8163 13.8499 37.2302 15.0159 37.3405C15.0159 37.3405 17.7597 37.6383 17.9583 39.0644C17.9583 39.0644 17.9852 39.5335 17.6695 40.0029ZM44.2042 31.7268H38.3703C37.973 31.7001 37.7996 31.5581 37.7312 31.4756L37.7269 31.4682L31.482 20.6515L31.4739 20.6568L31.0994 20.1199C30.4855 19.1811 29.5109 21.5819 29.5109 21.5819C28.3471 24.2571 29.6761 27.2985 30.1393 28.2178L38.8134 43.2418C39.4961 44.4244 41.0085 44.8299 42.1916 44.1467C43.3743 43.4638 43.7797 41.9514 43.0966 40.7685L40.9277 37.0118C40.8856 36.9207 40.8125 36.6737 41.2573 36.6726H44.2042C45.57 36.6726 46.6772 35.5654 46.6772 34.1996C46.6772 32.8338 45.57 31.7266 44.2042 31.7266V31.7268ZM32.8728 35.0885C32.8728 35.0885 33.1843 36.6726 31.9794 36.6726H10.4129C9.04713 36.6726 7.93994 35.5654 7.93994 34.1996C7.93994 32.8338 9.04713 31.7266 10.4129 31.7266H15.9574C16.8526 31.6749 17.0646 31.158 17.0646 31.158L17.0698 31.1606L24.3071 18.625L24.305 18.6246C24.4368 18.3824 24.327 18.1535 24.308 18.1174L21.9177 13.9774C21.2348 12.7947 21.64 11.2821 22.8229 10.5994C24.0057 9.91646 25.5182 10.3215 26.2011 11.5044L27.3095 13.4244L28.4161 11.5078C29.099 10.3251 30.6114 9.91967 31.7943 10.6028C32.9772 11.2857 33.3824 12.7979 32.6995 13.9808L22.6284 31.4243C22.5843 31.5306 22.5709 31.6973 22.8985 31.7266H28.9184L28.9197 31.7854C28.9197 31.7854 32.399 31.8394 32.8728 35.0885Z" fill="white"/>
</g>
<defs>
<linearGradient id="paint0_linear_866_17835" x1="27.4948" y1="0.288086" x2="27.4948" y2="55.0063" gradientUnits="userSpaceOnUse">
<stop stop-color="#17C9FB"/>
<stop offset="1" stop-color="#1A74E8"/>
</linearGradient>
<clipPath id="clip0_866_17835">
<rect width="54.7182" height="54.7182" fill="white" transform="translate(0.13623 0.288086)"/>
</clipPath>
</defs>
</svg>
