<svg width="66" height="56" viewBox="0 0 66 56" fill="none" xmlns="http://www.w3.org/2000/svg">
<g clip-path="url(#clip0_866_17858)">
<path d="M32.9795 0.81543C15.3463 0.81543 1.53168 23.2499 0.224609 42.1983C5.75808 51.8017 19.1019 55.4116 32.98 55.4116C46.8571 55.4116 60.2016 51.8017 65.7323 42.198C64.4249 23.2499 50.6121 0.81543 32.9797 0.81543" fill="#E0F1FF"/>
<path d="M61.1253 37.6836C61.1253 37.6836 57.2308 29.2637 53.2723 24.3514C49.311 19.437 44.4735 14.0859 41.6132 14.0859C38.7545 14.0859 30.7631 28.2351 27.097 28.2351C23.4301 28.2351 21.5245 21.821 17.0163 21.821C12.5063 21.821 5.341 37.2882 5.341 37.2882L4.85547 39.9103C4.85547 39.9103 7.34476 50.9467 33.387 50.9467C59.4303 50.9467 61.5116 40.0915 61.5116 40.0915L61.1255 37.6833" fill="#66CC66"/>
<path d="M27.5031 34.2736C23.4586 34.2736 21.3852 30.283 20.2611 27.8197C19.2502 25.6006 19.0752 22.0971 16.207 21.999C16.4888 21.8873 16.7601 21.8212 17.0144 21.8212C21.5227 21.8212 23.4283 28.2353 27.0952 28.2353C30.7613 28.2353 38.7527 14.0859 41.6114 14.0859C42.1501 14.0859 42.7569 14.276 43.4153 14.6141C42.9282 14.5499 42.3037 14.5946 41.8226 15.0773C40.8985 16.0016 32.5102 34.2736 27.5031 34.2736Z" fill="#17AD49"/>
</g>
<defs>
<clipPath id="clip0_866_17858">
<rect width="65.7646" height="54.7182" fill="white" transform="translate(0.0209961 0.81543)"/>
</clipPath>
</defs>
</svg>
