<svg width="47" height="47" viewBox="0 0 47 47" fill="none" xmlns="http://www.w3.org/2000/svg">
<path fill-rule="evenodd" clip-rule="evenodd" d="M35.8313 38.6973V38.6934L35.8662 38.6101L41.6802 9.29755V9.20449C41.6802 8.47362 41.4088 7.8358 40.8233 7.45389C40.3096 7.1185 39.7183 7.09523 39.3034 7.12625C38.9172 7.16118 38.5362 7.23921 38.1674 7.35889C38.0101 7.4096 37.8549 7.46651 37.7021 7.52949L37.6769 7.53919L5.26252 20.2548L5.25283 20.2587C5.15428 20.2924 5.05782 20.3319 4.96397 20.377C4.73344 20.4805 4.51226 20.6038 4.30288 20.7453C3.88607 21.0322 3.09316 21.7069 3.22693 22.777C3.33743 23.6649 3.94811 24.2272 4.36104 24.5199C4.60478 24.6907 4.86683 24.8338 5.14232 24.9464L5.20436 24.9735L5.22374 24.9793L5.23732 24.9852L10.9098 26.8947C10.8904 27.2495 10.9253 27.612 11.0203 27.9707L13.8605 38.7477C14.0156 39.3351 14.3509 39.8592 14.8192 40.2464C15.2875 40.6335 15.8653 40.8642 16.4714 40.9062C17.0775 40.9481 17.6816 40.7991 18.1987 40.4801C18.7159 40.1611 19.1201 39.6882 19.3546 39.1277L23.7903 34.3857L31.4073 40.225L31.5158 40.2715C32.2079 40.5739 32.8535 40.6689 33.4448 40.5894C34.0361 40.508 34.5052 40.2598 34.8581 39.9787C35.2662 39.6479 35.5914 39.2263 35.808 38.7477L35.8235 38.7147L35.8293 38.7031L35.8313 38.6973ZM13.8314 27.2301C13.7999 27.1106 13.8074 26.9841 13.8527 26.869C13.898 26.754 13.9789 26.6564 14.0834 26.5904L33.3168 14.3768C33.3168 14.3768 34.449 13.6886 34.4083 14.3768C34.4083 14.3768 34.6099 14.497 34.0031 15.0612C33.4293 15.5982 20.2949 28.2789 18.9649 29.5623C18.891 29.6341 18.8392 29.7256 18.8157 29.826L16.6715 38.0071L13.8314 27.2282V27.2301Z" fill="#070E43"/>
</svg>
