<svg width="34" height="35" viewBox="0 0 34 35" fill="none" xmlns="http://www.w3.org/2000/svg">
<g clip-path="url(#clip0_884_13504)">
<path d="M19.2711 17.5957C19.2711 22.7987 15.0417 27.0176 9.822 27.0176C8.58305 27.0192 7.35591 26.7768 6.21064 26.3042C5.06537 25.8316 4.0244 25.1381 3.14716 24.2632C2.26993 23.3883 1.57361 22.3492 1.09796 21.2052C0.62231 20.0612 0.376649 18.8347 0.375 17.5957C0.375 12.3907 4.60438 8.17384 9.822 8.17384C11.0611 8.17191 12.2885 8.4141 13.434 8.88658C14.5795 9.35906 15.6207 10.0526 16.4982 10.9275C17.3757 11.8024 18.0722 12.8416 18.5479 13.9858C19.0237 15.1299 19.2694 16.3566 19.2711 17.5957ZM29.6352 17.5957C29.6352 22.4951 27.5205 26.4648 24.9117 26.4648C22.3028 26.4648 20.1882 22.493 20.1882 17.5957C20.1882 12.6963 22.3028 8.72659 24.9117 8.72659C27.5205 8.72659 29.6352 12.6984 29.6352 17.5957ZM33.875 17.5957C33.875 21.9842 33.1317 25.5415 32.2126 25.5415C31.2955 25.5415 30.5522 21.9821 30.5522 17.5957C30.5522 13.2072 31.2955 9.64993 32.2147 9.64993C33.1317 9.64993 33.875 13.2072 33.875 17.5957Z" fill="#070E43"/>
</g>
<defs>
<clipPath id="clip0_884_13504">
<rect width="33.5" height="33.5" fill="white" transform="translate(0.375 0.845703)"/>
</clipPath>
</defs>
</svg>
