<svg width="34" height="33" viewBox="0 0 34 33" fill="none" xmlns="http://www.w3.org/2000/svg">
<g id="vuesax/linear/bitcoin-convert">
<g id="bitcoin-convert">
<path id="Vector" d="M31.9054 21.4785C31.9054 26.6832 27.6959 30.8927 22.4912 30.8927L23.9033 28.5392" stroke="#6DC0FD" stroke-linecap="round" stroke-linejoin="round"/>
<path id="Vector_2" d="M2.31787 10.7189C2.31787 5.51419 6.52738 1.30469 11.7321 1.30469L10.32 3.65824" stroke="#6DC0FD" stroke-linecap="round" stroke-linejoin="round"/>
<g id="Group">
<g id="Group_2">
<path id="Vector_3" d="M9.87598 17.5762H13.6551C14.4889 17.5762 15.1748 18.3293 15.1748 19.0959C15.1748 19.9297 14.5024 20.6156 13.6551 20.6156H9.87598V17.5762Z" stroke="#6DC0FD" stroke-miterlimit="10" stroke-linecap="round" stroke-linejoin="round"/>
<path id="Vector_4" d="M9.87598 20.6152H14.2065C15.1614 20.6152 15.9414 21.2877 15.9414 22.135C15.9414 22.9688 15.1614 23.6547 14.2065 23.6547H9.87598V20.6152Z" stroke="#6DC0FD" stroke-miterlimit="10" stroke-linecap="round" stroke-linejoin="round"/>
<path id="Vector_5" d="M12.2969 23.6426V25.1488" stroke="#6DC0FD" stroke-miterlimit="10" stroke-linecap="round" stroke-linejoin="round"/>
<path id="Vector_6" d="M12.2969 16.0703V17.5766" stroke="#6DC0FD" stroke-miterlimit="10" stroke-linecap="round" stroke-linejoin="round"/>
</g>
<path id="Vector_7" d="M20.9441 20.6164C20.9441 25.2025 17.2322 28.9143 12.6461 28.9143C8.06004 28.9143 4.34814 25.2025 4.34814 20.6164C4.34814 16.0303 8.06004 12.3184 12.6461 12.3184C12.8613 12.3184 13.063 12.3318 13.2917 12.3453C17.3667 12.6546 20.6213 15.9092 20.9306 19.9842C20.9306 20.186 20.9441 20.3878 20.9441 20.6164Z" stroke="#6DC0FD" stroke-miterlimit="10" stroke-linecap="round" stroke-linejoin="round"/>
<path id="Vector_8" d="M29.887 11.6593C29.887 16.2453 26.1751 19.9573 21.589 19.9573H20.93C20.6207 15.8823 17.366 12.6276 13.291 12.3183V11.6593C13.291 7.0732 17.0029 3.36133 21.589 3.36133C26.1751 3.36133 29.887 7.0732 29.887 11.6593Z" stroke="#6DC0FD" stroke-miterlimit="10" stroke-linecap="round" stroke-linejoin="round"/>
</g>
</g>
</g>
</svg>
