<svg width="33" height="32" viewBox="0 0 33 32" fill="none" xmlns="http://www.w3.org/2000/svg">
<g id="vuesax/linear/bootsrap">
<g id="bootsrap">
<path id="Vector" d="M23.1629 4H9.82959C7.56292 4 5.82959 5.73333 5.82959 8V9.06667C5.82959 10.1333 5.69626 11.0667 5.29626 12.1333C4.89626 13.6 3.42959 14.6667 1.82959 14.6667V17.3333C3.42959 17.3333 4.89626 18.4 5.29626 19.8667C5.69626 20.8 5.82959 21.8667 5.82959 22.9333V24C5.82959 26.2667 7.56292 28 9.82959 28H23.1629C25.4296 28 27.1629 26.2667 27.1629 24V22.9333C27.1629 21.8667 27.2963 20.9333 27.6963 19.8667C28.2296 18.4 29.5629 17.3333 31.1629 17.3333V14.6667C29.5629 14.6667 28.0963 13.6 27.6963 12.1333C27.2963 11.2 27.1629 10.1333 27.1629 9.06667V8C27.1629 5.73333 25.4296 4 23.1629 4Z" stroke="#6DC0FD" stroke-miterlimit="10" stroke-linejoin="round"/>
<path id="Vector_2" d="M13.5615 16.0004H17.4282C19.0282 16.0004 20.2282 17.2004 20.2282 18.8004C20.2282 20.4004 19.0282 21.6004 17.4282 21.6004H13.5615V10.4004H17.4282C19.0282 10.4004 20.2282 11.6004 20.2282 13.2004C20.2282 14.8004 19.0282 16.0004 17.4282 16.0004H13.5615Z" stroke="#6DC0FD" stroke-miterlimit="10" stroke-linecap="round" stroke-linejoin="round"/>
</g>
</g>
</svg>
