<svg width="51" height="50" viewBox="0 0 51 50" fill="none" xmlns="http://www.w3.org/2000/svg">
<g id="vuesax/linear/empty-wallet">
<g id="Group">
<path id="Vector" d="M38.084 28.2298C37.209 29.084 36.709 30.3131 36.834 31.6256C37.0215 33.8756 39.084 35.5215 41.334 35.5215H45.2923V38.0006C45.2923 42.3131 41.7715 45.834 37.459 45.834H13.5423C9.22982 45.834 5.70898 42.3131 5.70898 38.0006V23.9798C5.70898 19.6673 9.22982 16.1465 13.5423 16.1465H37.459C41.7715 16.1465 45.2923 19.6673 45.2923 23.9798V26.9798H41.084C39.9173 26.9798 38.8548 27.4381 38.084 28.2298Z" stroke="#6DC0FD" stroke-width="1.5" stroke-linecap="round" stroke-linejoin="round"/>
<path id="Vector_2" d="M5.70898 25.8542V16.3335C5.70898 13.8543 7.22982 11.6459 9.54232 10.7709L26.084 4.5209C28.6673 3.54173 31.4382 5.45846 31.4382 8.22929V16.1459" stroke="#6DC0FD" stroke-width="1.5" stroke-linecap="round" stroke-linejoin="round"/>
</g>
<path id="Vector_3" d="M47.4982 29.1054V33.3972C47.4982 34.543 46.5815 35.4804 45.4148 35.5221H41.3315C39.0815 35.5221 37.019 33.8763 36.8315 31.6263C36.7065 30.3138 37.2065 29.0846 38.0815 28.2304C38.8523 27.4388 39.9148 26.9805 41.0815 26.9805H45.4148C46.5815 27.0221 47.4982 27.9595 47.4982 29.1054Z" stroke="#6DC0FD" stroke-width="1.5" stroke-linecap="round" stroke-linejoin="round"/>
<path id="Vector_4" d="M15.084 25H29.6673" stroke="#6DC0FD" stroke-width="1.5" stroke-linecap="round" stroke-linejoin="round"/>
</g>
</svg>
