<svg width="138" height="56" viewBox="0 0 138 56" fill="none" xmlns="http://www.w3.org/2000/svg">
<g clip-path="url(#clip0_866_17856)">
<path d="M0.360352 0.81543V4.55548H26.9614V0.81543H0.360352ZM30.7303 0.81543V4.55548H68.638C68.638 4.55548 64.7658 0.81543 59.6375 0.81543H30.7303ZM76.0743 0.81543V4.55548H99.0079L97.6466 0.81543H76.0743ZM115.45 0.81543L114.089 4.55548H136.814V0.81543H115.45ZM0.360352 8.08894V11.829H26.9614V8.08894H0.360352ZM30.7303 8.09428V11.829H73.0368C73.0368 11.829 72.5427 8.95055 71.6808 8.09428H30.7303ZM76.0743 8.09428V11.829H101.522L100.262 8.09428H76.0743ZM112.727 8.09428L111.468 11.829H136.814V8.09428H112.727ZM8.00488 15.3625V19.1073H19.5251V15.3625H8.00488ZM38.3748 15.3625V19.1073H49.895V15.3625H38.3748ZM61.1002 15.3625V19.1073H72.6204C72.6204 19.1073 73.3517 17.1295 73.3517 15.3622H61.1002V15.3625ZM83.7188 15.3625V19.1073H104.143L102.782 15.3622H83.7188V15.3625ZM110.218 15.3625L108.852 19.1076H129.378V15.3625H110.218ZM8.00488 22.6413V26.3808H19.5251V22.6413H8.00488ZM38.3748 22.6413V26.3808H67.7998C67.7998 26.3808 70.2614 24.4617 71.0456 22.6408H38.3748V22.6413ZM83.7188 22.6413V26.3808H95.239V24.2989L95.9704 26.3808H117.073L117.858 24.2989V26.3808H129.378V22.6413H107.752L106.604 25.8094L105.451 22.6413H83.7188ZM8.00488 29.9143V33.6543H19.5251V29.9143H8.00488ZM38.3748 29.9143V33.6543H71.0456C70.2611 31.8393 67.7998 29.9143 67.7998 29.9143H38.3748ZM83.7188 29.9143V33.6543H95.239V29.9143H83.7188ZM97.3316 29.9143L98.7249 33.6543H114.548L115.872 29.9143H97.3316ZM117.858 29.9143V33.6543H129.378V29.9143H117.858ZM8.00488 37.1878V40.9279H19.5251V37.1878H8.00488ZM38.3748 37.1878V40.9279H49.895V37.1878H38.3748ZM61.1002 37.1878V40.9279H73.3517C73.3517 39.1627 72.6204 37.1878 72.6204 37.1878H61.1002ZM83.7188 37.1878V40.9279H95.239V37.1878H83.7188ZM99.9474 37.1878L101.298 40.9279H111.905L113.267 37.1878H99.9474ZM117.858 37.1878V40.9279H129.378V37.1878H117.858ZM0.568548 44.4616V48.2067H27.1696V44.4613H0.568548V44.4616ZM30.7303 44.4616V48.2067H71.6808C72.5427 47.3491 73.0368 44.4613 73.0368 44.4613H30.7303V44.4616ZM76.2825 44.4616V48.2067H95.239V44.4613H76.2825V44.4616ZM102.569 44.4616L103.957 48.2067H109.354L110.656 44.4613H102.569V44.4616ZM117.858 44.4616V48.2067H137.022V44.4613H117.858V44.4616ZM0.568548 51.7402V55.4802H27.1696V51.7402H0.568548ZM30.7303 51.7402V55.4746H59.6375C64.7658 55.4746 68.638 51.7399 68.638 51.7399H30.7303V51.7402ZM76.2825 51.7402V55.4802H95.239V51.7402H76.2825ZM105.2 51.7402L106.535 55.4693L106.765 55.4746L108.12 51.7399H105.2V51.7402ZM117.858 51.7402V55.4802H137.022V51.7402H117.858Z" fill="#1F70C1"/>
</g>
<defs>
<clipPath id="clip0_866_17856">
<rect width="136.662" height="54.7182" fill="white" transform="translate(0.358887 0.81543)"/>
</clipPath>
</defs>
</svg>
