<svg width="48" height="47" viewBox="0 0 48 47" fill="none" xmlns="http://www.w3.org/2000/svg">
<path d="M15.8712 4.20898H32.1559C38.3596 4.20898 43.4001 9.24949 43.4001 15.4532V31.7379C43.4001 34.7201 42.2155 37.5801 40.1068 39.6888C37.9981 41.7975 35.138 42.9821 32.1559 42.9821H15.8712C9.66746 42.9821 4.62695 37.9416 4.62695 31.7379V15.4532C4.62695 12.471 5.81161 9.61104 7.92031 7.50234C10.029 5.39364 12.889 4.20898 15.8712 4.20898ZM15.4834 8.0863C13.6324 8.0863 11.8573 8.8216 10.5484 10.1305C9.23957 11.4393 8.50427 13.2145 8.50427 15.0655V32.1257C8.50427 35.9836 11.6255 39.1048 15.4834 39.1048H32.5436C34.3946 39.1048 36.1698 38.3695 37.4786 37.0607C38.7875 35.7518 39.5228 33.9766 39.5228 32.1257V15.0655C39.5228 11.2075 36.4015 8.0863 32.5436 8.0863H15.4834ZM34.1915 10.9943C34.8342 10.9943 35.4506 11.2496 35.905 11.7041C36.3595 12.1585 36.6148 12.7749 36.6148 13.4176C36.6148 14.0603 36.3595 14.6767 35.905 15.1312C35.4506 15.5856 34.8342 15.8409 34.1915 15.8409C33.5488 15.8409 32.9324 15.5856 32.4779 15.1312C32.0235 14.6767 31.7682 14.0603 31.7682 13.4176C31.7682 12.7749 32.0235 12.1585 32.4779 11.7041C32.9324 11.2496 33.5488 10.9943 34.1915 10.9943ZM24.0135 13.9023C26.5843 13.9023 29.0499 14.9235 30.8677 16.7414C32.6856 18.5592 33.7068 21.0247 33.7068 23.5956C33.7068 26.1664 32.6856 28.6319 30.8677 30.4497C29.0499 32.2676 26.5843 33.2888 24.0135 33.2888C21.4427 33.2888 18.9772 32.2676 17.1593 30.4497C15.3415 28.6319 14.3202 26.1664 14.3202 23.5956C14.3202 21.0247 15.3415 18.5592 17.1593 16.7414C18.9772 14.9235 21.4427 13.9023 24.0135 13.9023ZM24.0135 17.7796C22.471 17.7796 20.9917 18.3923 19.901 19.483C18.8103 20.5738 18.1976 22.0531 18.1976 23.5956C18.1976 25.1381 18.8103 26.6174 19.901 27.7081C20.9917 28.7988 22.471 29.4115 24.0135 29.4115C25.556 29.4115 27.0353 28.7988 28.126 27.7081C29.2167 26.6174 29.8295 25.1381 29.8295 23.5956C29.8295 22.0531 29.2167 20.5738 28.126 19.483C27.0353 18.3923 25.556 17.7796 24.0135 17.7796Z" fill="#070E43"/>
</svg>
