<svg width="51" height="50" viewBox="0 0 51 50" fill="none" xmlns="http://www.w3.org/2000/svg">
<g id="vuesax/linear/moneys">
<g id="Group">
<path id="Vector" d="M40.7093 16.5006V27.2298C40.7093 33.6465 37.0426 36.3964 31.5426 36.3964H13.2301C12.2926 36.3964 11.3968 36.3132 10.5635 36.1257C10.0426 36.0423 9.54265 35.8965 9.08432 35.7298C5.95932 34.5632 4.06348 31.8548 4.06348 27.2298V16.5006C4.06348 10.0839 7.73013 7.33398 13.2301 7.33398H31.5426C36.2093 7.33398 39.5635 9.31314 40.4593 13.834C40.6051 14.6673 40.7093 15.5214 40.7093 16.5006Z" stroke="#6DC0FD" stroke-width="1.5" stroke-miterlimit="10" stroke-linecap="round" stroke-linejoin="round"/>
<path id="Vector_2" d="M46.9613 22.7506V33.4798C46.9613 39.8965 43.2946 42.6464 37.7946 42.6464H19.4821C17.9404 42.6464 16.5446 42.4382 15.3363 41.9798C12.8571 41.0632 11.1696 39.1673 10.5654 36.1257C11.3988 36.3132 12.2946 36.3964 13.2321 36.3964H31.5446C37.0446 36.3964 40.7113 33.6465 40.7113 27.2298V16.5006C40.7113 15.5214 40.6279 14.6465 40.4613 13.834C44.4196 14.6673 46.9613 17.4589 46.9613 22.7506Z" stroke="#6DC0FD" stroke-width="1.5" stroke-miterlimit="10" stroke-linecap="round" stroke-linejoin="round"/>
<path id="Vector_3" d="M22.3721 27.3751C25.4097 27.3751 27.8721 24.9126 27.8721 21.875C27.8721 18.8375 25.4097 16.375 22.3721 16.375C19.3345 16.375 16.8721 18.8375 16.8721 21.875C16.8721 24.9126 19.3345 27.3751 22.3721 27.3751Z" stroke="#6DC0FD" stroke-width="1.5" stroke-miterlimit="10" stroke-linecap="round" stroke-linejoin="round"/>
<path id="Vector_4" d="M10.46 17.293V26.4597" stroke="#6DC0FD" stroke-width="1.5" stroke-miterlimit="10" stroke-linecap="round" stroke-linejoin="round"/>
<path id="Vector_5" d="M34.2959 17.293V26.4597" stroke="#6DC0FD" stroke-width="1.5" stroke-miterlimit="10" stroke-linecap="round" stroke-linejoin="round"/>
</g>
</g>
</svg>
