<svg width="127" height="127" viewBox="0 0 127 127" fill="none" xmlns="http://www.w3.org/2000/svg">
<path d="M64.533 54.2337C64.1997 54.2003 63.7997 54.2003 63.433 54.2337C55.4997 53.967 49.1997 47.467 49.1997 39.467C49.1997 31.3003 55.7997 24.667 63.9997 24.667C72.1664 24.667 78.7997 31.3003 78.7997 39.467C78.7664 47.467 72.4664 53.967 64.533 54.2337Z" stroke="#6DC0FD" stroke-linecap="round" stroke-linejoin="round"/>
<path d="M47.8654 66.533C39.7988 71.933 39.7988 80.733 47.8654 86.0997C57.0321 92.233 72.0654 92.233 81.2321 86.0997C89.2988 80.6997 89.2988 71.8997 81.2321 66.533C72.0988 60.433 57.0654 60.433 47.8654 66.533Z" stroke="#6DC0FD" stroke-linecap="round" stroke-linejoin="round"/>
<g filter="url(#filter0_f_866_17775)">
<circle cx="63.5" cy="63.5" r="23.5" fill="#6DC0FD"/>
</g>
<defs>
<filter id="filter0_f_866_17775" x="-3.8147e-06" y="-3.8147e-06" width="127" height="127" filterUnits="userSpaceOnUse" color-interpolation-filters="sRGB">
<feFlood flood-opacity="0" result="BackgroundImageFix"/>
<feBlend mode="normal" in="SourceGraphic" in2="BackgroundImageFix" result="shape"/>
<feGaussianBlur stdDeviation="20" result="effect1_foregroundBlur_866_17775"/>
</filter>
</defs>
</svg>
