<svg width="51" height="51" viewBox="0 0 51 51" fill="none" xmlns="http://www.w3.org/2000/svg">
<g id="vuesax/linear/shopping-cart">
<g id="shopping-cart">
<path id="Vector" d="M4.66602 4.44922H8.29103C10.541 4.44922 12.3119 6.38672 12.1244 8.61589L10.3952 29.3659C10.1035 32.7617 12.791 35.6784 16.2077 35.6784H38.3952C41.3952 35.6784 44.0202 33.2201 44.2493 30.2409L45.3743 14.6159C45.6243 11.1576 42.9993 8.34504 39.5202 8.34504H12.6244" stroke="#6DC0FD" stroke-width="1.5" stroke-miterlimit="10" stroke-linecap="round" stroke-linejoin="round"/>
<path id="Vector_2" d="M34.3542 46.1165C35.7924 46.1165 36.9583 44.9506 36.9583 43.5124C36.9583 42.0741 35.7924 40.9082 34.3542 40.9082C32.9159 40.9082 31.75 42.0741 31.75 43.5124C31.75 44.9506 32.9159 46.1165 34.3542 46.1165Z" stroke="#6DC0FD" stroke-width="1.5" stroke-miterlimit="10" stroke-linecap="round" stroke-linejoin="round"/>
<path id="Vector_3" d="M17.6882 46.1165C19.1264 46.1165 20.2923 44.9506 20.2923 43.5124C20.2923 42.0741 19.1264 40.9082 17.6882 40.9082C16.2499 40.9082 15.084 42.0741 15.084 43.5124C15.084 44.9506 16.2499 46.1165 17.6882 46.1165Z" stroke="#6DC0FD" stroke-width="1.5" stroke-miterlimit="10" stroke-linecap="round" stroke-linejoin="round"/>
<path id="Vector_4" d="M19.25 16.9492H44.25" stroke="#6DC0FD" stroke-width="1.5" stroke-miterlimit="10" stroke-linecap="round" stroke-linejoin="round"/>
</g>
</g>
</svg>
