<svg width="127" height="127" viewBox="0 0 127 127" fill="none" xmlns="http://www.w3.org/2000/svg">
<path d="M70.4859 32.1629L77.0859 45.3629C77.9859 47.2004 80.3859 48.9629 82.4109 49.3004L94.3734 51.2879C102.023 52.5629 103.823 58.1129 98.3109 63.5879L89.0109 72.8879C87.4359 74.4629 86.5734 77.5004 87.0609 79.6754L89.7234 91.1879C91.8234 100.3 86.9859 103.825 78.9234 99.0629L67.7109 92.4254C65.6859 91.2254 62.3484 91.2254 60.2859 92.4254L49.0734 99.0629C41.0484 103.825 36.1734 100.263 38.2734 91.1879L40.9359 79.6754C41.4234 77.5004 40.5609 74.4629 38.9859 72.8879L29.6859 63.5879C24.2109 58.1129 25.9734 52.5629 33.6234 51.2879L45.5859 49.3004C47.5734 48.9629 49.9734 47.2004 50.8734 45.3629L57.4734 32.1629C61.0734 25.0004 66.9234 25.0004 70.4859 32.1629Z" stroke="#6DC0FD" stroke-width="1.5" stroke-linecap="round" stroke-linejoin="round"/>
<g filter="url(#filter0_f_866_17821)">
<circle cx="63.5005" cy="63.5" r="23.5" fill="#6DC0FD"/>
</g>
<defs>
<filter id="filter0_f_866_17821" x="0.000484467" y="-3.8147e-06" width="127" height="127" filterUnits="userSpaceOnUse" color-interpolation-filters="sRGB">
<feFlood flood-opacity="0" result="BackgroundImageFix"/>
<feBlend mode="normal" in="SourceGraphic" in2="BackgroundImageFix" result="shape"/>
<feGaussianBlur stdDeviation="20" result="effect1_foregroundBlur_866_17821"/>
</filter>
</defs>
</svg>
