<svg width="47" height="48" viewBox="0 0 47 48" fill="none" xmlns="http://www.w3.org/2000/svg">
<path d="M39.0811 16.0417C39.105 16.3863 39.105 16.7308 39.105 17.0786C39.105 27.6739 31.039 39.8934 16.2901 39.8934V39.8871C11.9332 39.8934 7.66681 38.6455 3.99902 36.2924C4.63255 36.3686 5.26925 36.4067 5.90754 36.4083C9.51817 36.4114 13.0256 35.2 15.8661 32.9691C12.4349 32.904 9.42607 30.6668 8.37496 27.4008C9.57691 27.6326 10.8154 27.5849 11.9951 27.2626C8.25429 26.5068 5.56299 23.2201 5.56299 19.4031C5.56299 19.3682 5.56299 19.3348 5.56299 19.3015C6.67762 19.9223 7.92562 20.2668 9.2022 20.3049C5.6789 17.9503 4.59286 13.2631 6.72049 9.59851C10.7916 14.608 16.7982 17.6533 23.2462 17.9757C22.5999 15.1907 23.4827 12.2723 25.5659 10.3146C28.7955 7.27875 33.8748 7.43436 36.9106 10.6623C38.7064 10.3082 40.4276 9.64932 42.0027 8.7157C41.4041 10.5718 40.1513 12.1485 38.4778 13.1504C40.0672 12.963 41.62 12.5375 43.0824 11.8881C42.0058 13.5013 40.6499 14.9065 39.0811 16.0417Z" fill="#070E43"/>
</svg>
