<svg width="33" height="32" viewBox="0 0 33 32" fill="none" xmlns="http://www.w3.org/2000/svg">
<g id="vuesax/linear/unlock">
<g id="unlock">
<path id="Vector" d="M23.1939 29.334H9.86052C4.52718 29.334 3.19385 28.0007 3.19385 22.6673V20.0007C3.19385 14.6673 4.52718 13.334 9.86052 13.334H23.1939C28.5272 13.334 29.8605 14.6673 29.8605 20.0007V22.6673C29.8605 28.0007 28.5272 29.334 23.1939 29.334Z" stroke="#6DC0FD" stroke-linecap="round" stroke-linejoin="round"/>
<path id="Vector_2" d="M8.52734 13.3327V10.666C8.52734 6.25268 9.86068 2.66602 16.5273 2.66602C22.5273 2.66602 24.5273 5.33268 24.5273 9.33268" stroke="#6DC0FD" stroke-linecap="round" stroke-linejoin="round"/>
<path id="Vector_3" d="M16.5272 24.6667C18.3681 24.6667 19.8605 23.1743 19.8605 21.3333C19.8605 19.4924 18.3681 18 16.5272 18C14.6862 18 13.1938 19.4924 13.1938 21.3333C13.1938 23.1743 14.6862 24.6667 16.5272 24.6667Z" stroke="#6DC0FD" stroke-linecap="round" stroke-linejoin="round"/>
</g>
</g>
</svg>
